<svg width="14" height="14" viewBox="0 0 14 14" fill="none" xmlns="http://www.w3.org/2000/svg">
<path d="M3.11111 6.06667V3.11111H1.55556V3.88889C1.55556 4.38148 1.69815 4.82559 1.98333 5.22122C2.26852 5.61685 2.64444 5.89867 3.11111 6.06667ZM10.8889 6.06667C11.3556 5.89815 11.7315 5.61607 12.0167 5.22044C12.3019 4.82481 12.4444 4.38096 12.4444 3.88889V3.11111H10.8889V6.06667ZM6.22222 12.4444V10.0333C5.58704 9.89074 5.02004 9.62189 4.52122 9.22678C4.02241 8.83166 3.65607 8.3357 3.42222 7.73889C2.45 7.62222 1.6367 7.19781 0.982333 6.46566C0.327963 5.73352 0.000518519 4.87459 0 3.88889V3.11111C0 2.68333 0.152445 2.31726 0.457333 2.01289C0.762222 1.70852 1.1283 1.55607 1.55556 1.55556H3.11111C3.11111 1.12778 3.26356 0.761704 3.56844 0.457333C3.87333 0.152963 4.23941 0.000518518 4.66667 0H9.33333C9.76111 0 10.1274 0.152444 10.4323 0.457333C10.7372 0.762222 10.8894 1.1283 10.8889 1.55556H12.4444C12.8722 1.55556 13.2386 1.708 13.5434 2.01289C13.8483 2.31778 14.0005 2.68385 14 3.11111V3.88889C14 4.87407 13.6726 5.733 13.0177 6.46566C12.3628 7.19833 11.5495 7.62274 10.5778 7.73889C10.3444 8.33518 9.97837 8.83115 9.47956 9.22678C8.98074 9.6224 8.41348 9.89126 7.77778 10.0333V12.4444H10.1111C10.3315 12.4444 10.5163 12.5191 10.6657 12.6684C10.815 12.8178 10.8894 13.0024 10.8889 13.2222C10.8884 13.4421 10.8137 13.6269 10.6649 13.7768C10.5161 13.9266 10.3315 14.001 10.1111 14H3.88889C3.66852 14 3.48393 13.9253 3.33511 13.776C3.1863 13.6267 3.11163 13.4421 3.11111 13.2222C3.11059 13.0024 3.18526 12.8178 3.33511 12.6684C3.48496 12.5191 3.66956 12.4444 3.88889 12.4444H6.22222Z" fill="#E9E200"/>
</svg>
