<svg width="14" height="14" viewBox="0 0 14 14" fill="none" xmlns="http://www.w3.org/2000/svg">
<path d="M7 0C6.08075 0 5.17049 0.18106 4.32122 0.532843C3.47194 0.884626 2.70026 1.40024 2.05025 2.05025C0.737498 3.36301 0 5.14348 0 7C0 8.85652 0.737498 10.637 2.05025 11.9497C2.70026 12.5998 3.47194 13.1154 4.32122 13.4672C5.17049 13.8189 6.08075 14 7 14C8.85652 14 10.637 13.2625 11.9497 11.9497C13.2625 10.637 14 8.85652 14 7C14 6.08075 13.8189 5.17049 13.4672 4.32122C13.1154 3.47194 12.5998 2.70026 11.9497 2.05025C11.2997 1.40024 10.5281 0.884626 9.67878 0.532843C8.82951 0.18106 7.91925 0 7 0ZM3.5 5.25C3.5 4.69 3.99 4.2 4.55 4.2C5.11 4.2 5.6 4.69 5.6 5.25C5.6 5.81 5.11 6.3 4.55 6.3C3.99 6.3 3.5 5.81 3.5 5.25ZM8.939 10.661C8.624 10.15 7.875 9.8 7 9.8C6.125 9.8 5.376 10.15 5.061 10.661L4.067 9.667C4.697 8.904 5.775 8.4 7 8.4C8.225 8.4 9.303 8.904 9.933 9.667L8.939 10.661ZM9.45 6.3C8.89 6.3 8.4 5.81 8.4 5.25C8.4 4.69 8.89 4.2 9.45 4.2C10.01 4.2 10.5 4.69 10.5 5.25C10.5 5.81 10.01 6.3 9.45 6.3Z" fill="#FF3535"/>
</svg>
