<svg width="40" height="37" viewBox="0 0 40 37" fill="none" xmlns="http://www.w3.org/2000/svg">
<path d="M40 16.7C40 15.7452 39.6169 14.8295 38.9349 14.1544C38.253 13.4793 37.3281 13.1 36.3636 13.1H24.8727L26.6182 4.874C26.6545 4.694 26.6727 4.496 26.6727 4.298C26.6727 3.56 26.3636 2.876 25.8727 2.39L23.9455 0.5L11.9818 12.344C11.3091 13.01 10.9091 13.91 10.9091 14.9V32.9C10.9091 33.8548 11.2922 34.7705 11.9742 35.4456C12.6561 36.1207 13.581 36.5 14.5455 36.5H30.9091C32.4182 36.5 33.7091 35.6 34.2545 34.304L39.7455 21.614C39.9091 21.2 40 20.768 40 20.3V16.7ZM0 36.5H7.27273V14.9H0V36.5Z" fill="white"/>
</svg>
