<svg width="24" height="25" viewBox="0 0 24 25" fill="none" xmlns="http://www.w3.org/2000/svg">
<g clip-path="url(#clip0_712_1013)">
<path fill-rule="evenodd" clip-rule="evenodd" d="M16.0599 11.4399C16.3408 11.7212 16.4986 12.1024 16.4986 12.4999C16.4986 12.8974 16.3408 13.2787 16.0599 13.5599L10.4039 19.2179C10.1225 19.4992 9.74089 19.6571 9.34304 19.657C8.94518 19.6569 8.56365 19.4988 8.28239 19.2174C8.00113 18.936 7.84317 18.5544 7.84326 18.1566C7.84336 17.7587 8.00149 17.3772 8.28289 17.0959L12.8789 12.4999L8.28289 7.90391C8.00952 7.62114 7.85814 7.2423 7.86137 6.84901C7.8646 6.45571 8.02218 6.07941 8.30016 5.80117C8.57815 5.52292 8.95429 5.36499 9.34759 5.36139C9.74088 5.35779 10.1199 5.5088 10.4029 5.78191L16.0609 11.4389L16.0599 11.4399Z" fill="#001B2F"/>
</g>
<defs>
<clipPath id="clip0_712_1013">
<rect width="24" height="24" fill="white" transform="translate(0 0.5)"/>
</clipPath>
</defs>
</svg>
