<svg width="24" height="25" viewBox="0 0 24 25" fill="none" xmlns="http://www.w3.org/2000/svg">
<g id="mingcute:right-fill" clip-path="url(#clip0_712_1017)">
<g id="Group">
<path id="Vector" fill-rule="evenodd" clip-rule="evenodd" d="M7.94011 13.5601C7.65921 13.2788 7.50143 12.8976 7.50143 12.5001C7.50143 12.1026 7.65921 11.7213 7.94011 11.4401L13.5961 5.78209C13.8775 5.50083 14.2591 5.34287 14.657 5.34296C15.0548 5.34305 15.4363 5.50119 15.7176 5.78259C15.9989 6.06398 16.1568 6.44558 16.1567 6.84344C16.1566 7.2413 15.9985 7.62283 15.7171 7.90409L11.1211 12.5001L15.7171 17.0961C15.9905 17.3789 16.1419 17.7577 16.1386 18.151C16.1354 18.5443 15.9778 18.9206 15.6998 19.1988C15.4219 19.4771 15.0457 19.635 14.6524 19.6386C14.2591 19.6422 13.8801 19.4912 13.5971 19.2181L7.93911 13.5611L7.94011 13.5601Z" fill="#001B2F"/>
</g>
</g>
<defs>
<clipPath id="clip0_712_1017">
<rect width="24" height="24" fill="white" transform="matrix(-1 0 0 -1 24 24.5)"/>
</clipPath>
</defs>
</svg>
