<svg width="48" height="58" viewBox="0 0 48 58" fill="none" xmlns="http://www.w3.org/2000/svg">
<path fill-rule="evenodd" clip-rule="evenodd" d="M20.5 5.5C20.5 2.7375 22.24 0.5 25 0.5C27.76 0.5 29.5 2.7375 29.5 5.5L30 25.5C30 24.59 31.25 11.35 31.25 10.5C31.25 8 32.7375 5.5 35.5 5.5C38.2625 5.5 40 7.7375 40 10.5V28.67C40.2075 28.55 40.75 19.055 40.75 18C40.75 15.5 41.4075 13 43.75 13C46.095 13 47.5 15.2375 47.5 18V33C47.5 38.3043 45.3929 43.3914 41.6421 47.1421C37.8914 50.8929 32.8043 53 27.5 53H25.815C22.101 52.9999 18.4604 51.9656 15.3011 50.0131C12.1418 48.0605 9.58858 45.2668 7.9275 41.945L0.822502 27.735C-0.0874978 25.915 0.612502 23.565 2.6225 22.675C3.68 22.2075 4.865 21.945 5.98 22.3C8.75 23.1825 8.34 24.45 10 26.025V10.5C10 7.7375 11.7375 5.5 14.5 5.5C17 5.5 18.5225 8.7875 18.75 10.5C19.0625 12.845 20 24.585 20 25.495L20.5 5.5Z" fill="white"/>
</svg>
