<svg width="35" height="35" viewBox="0 0 35 35" fill="none" xmlns="http://www.w3.org/2000/svg">
<path fill-rule="evenodd" clip-rule="evenodd" d="M27.9271 15.1958L29.7209 12.4979L29.7354 12.4833C32.7168 17.0812 32.8689 22.9624 30.1292 27.7083C29.6061 28.6143 28.6379 29.1708 27.5917 29.1666H7.39377C6.35803 29.1604 5.4033 28.6053 4.88544 27.7083C1.55338 21.8782 2.63317 14.5264 7.50095 9.90061C12.3687 5.27484 19.766 4.57102 25.4188 8.1958L22.7209 9.98955C18.1153 7.68569 12.544 8.67391 9.01176 12.4212C5.47954 16.1685 4.822 21.7885 7.39377 26.25H27.6063C29.5637 22.8532 29.6842 18.7004 27.9271 15.1958ZM17.5073 23.3283C16.7332 23.3283 15.9908 23.0206 15.4438 22.4729C14.8961 21.9258 14.5884 21.1835 14.5884 20.4093C14.5884 19.6352 14.8961 18.8929 15.4438 18.3458L27.825 10.0916L19.5709 22.4729C19.0238 23.0206 18.2814 23.3283 17.5073 23.3283Z" fill="#E9E200"/>
<mask id="mask0_585_678" style="mask-type:luminance" maskUnits="userSpaceOnUse" x="2" y="5" width="31" height="25">
<path fill-rule="evenodd" clip-rule="evenodd" d="M27.8807 15.1406L29.6745 12.4427L29.689 12.4281C32.6704 17.0261 32.8225 22.9072 30.0828 27.6531C29.5597 28.5591 28.5915 29.1156 27.5453 29.1115H7.34738C6.31164 29.1052 5.35691 28.5501 4.83905 27.6531C1.50699 21.823 2.58679 14.4712 7.45456 9.84544C12.3223 5.21967 19.7196 4.51585 25.3724 8.14063L22.6745 9.93438C18.0689 7.63051 12.4976 8.61873 8.96537 12.366C5.43315 16.1134 4.77561 21.7333 7.34738 26.1948H27.5599C29.5173 22.798 29.6379 18.6452 27.8807 15.1406ZM17.4609 23.2731C16.6868 23.2731 15.9445 22.9654 15.3974 22.4177C14.8497 21.8706 14.542 21.1283 14.542 20.3542C14.542 19.5801 14.8497 18.8377 15.3974 18.2906L27.7786 10.0365L19.5245 22.4177C18.9774 22.9654 18.235 23.2731 17.4609 23.2731Z" fill="white"/>
</mask>
<g mask="url(#mask0_585_678)">
</g>
</svg>
