<svg width="12" height="10" viewBox="0 0 12 10" fill="none" xmlns="http://www.w3.org/2000/svg">
<path d="M6.54023 7.83807C6.54023 7.76717 6.52626 7.69695 6.49913 7.63144C6.47199 7.56594 6.43222 7.50641 6.38208 7.45627C6.33194 7.40614 6.27242 7.36636 6.20691 7.33923C6.1414 7.3121 6.07119 7.29813 6.00029 7.29813C5.92938 7.29813 5.85917 7.3121 5.79366 7.33923C5.72815 7.36636 5.66863 7.40614 5.61849 7.45627C5.56835 7.50641 5.52858 7.56594 5.50144 7.63144C5.47431 7.69695 5.46034 7.76717 5.46034 7.83807C5.46478 7.97825 5.52358 8.11119 5.62431 8.20878C5.72503 8.30637 5.85977 8.36093 6.00002 8.36093C6.14026 8.36093 6.275 8.30637 6.37572 8.20878C6.47645 8.11119 6.53525 7.97825 6.53969 7.83807M6.39916 3.59367C6.38516 3.49187 6.33302 3.3992 6.25329 3.33438C6.17356 3.26956 6.07219 3.23745 5.96968 3.24452C5.86718 3.25159 5.77118 3.29732 5.70111 3.37248C5.63103 3.44763 5.59212 3.54658 5.59222 3.64933L5.59438 6.08205L5.59817 6.13717C5.61217 6.23897 5.66431 6.33164 5.74404 6.39646C5.82377 6.46127 5.92514 6.49339 6.02764 6.48632C6.13015 6.47925 6.22615 6.43352 6.29622 6.35836C6.36629 6.28321 6.40521 6.18426 6.40511 6.0815L6.40295 3.64825L6.39916 3.59367ZM7.06395 0.6275C6.60076 -0.209167 5.39819 -0.209167 4.93554 0.6275L0.749502 8.19479C0.300902 9.00551 0.887325 10 1.81425 10H10.1863C11.1127 10 11.6991 9.00551 11.2505 8.19479L7.06395 0.6275ZM5.64465 1.01989C5.67968 0.956466 5.73108 0.903591 5.79348 0.866771C5.85589 0.82995 5.92702 0.810529 5.99948 0.810529C6.07193 0.810529 6.14306 0.82995 6.20547 0.866771C6.26787 0.903591 6.31927 0.956466 6.3543 1.01989L10.5409 8.58772C10.575 8.64946 10.5925 8.71905 10.5915 8.7896C10.5905 8.86015 10.5711 8.92922 10.5352 8.98998C10.4994 9.05074 10.4483 9.10108 10.387 9.13604C10.3257 9.17099 10.2563 9.18934 10.1858 9.18928H1.81425C1.7437 9.18934 1.67434 9.17099 1.61305 9.13604C1.55177 9.10108 1.50066 9.05074 1.46479 8.98998C1.42893 8.92922 1.40954 8.86015 1.40855 8.7896C1.40756 8.71905 1.42501 8.64946 1.45916 8.58772L5.64465 1.01989Z" fill="white"/>
</svg>
